<mxfile host="app.diagrams.net" modified="2024-03-01T13:05:17.320Z" agent="Mozilla/5.0 (Windows NT 10.0; Win64; x64) AppleWebKit/537.36 (KHTML, like Gecko) Chrome/122.0.0.0 Safari/537.36 Edg/122.0.0.0" etag="ENdnWs7475kcJ7iJ5AzZ" version="23.1.8" type="device" pages="4">
  <diagram name="Page-1" id="rbGv_M42OyS1G9aLpRV2">
    <mxGraphModel dx="1042" dy="582" grid="1" gridSize="10" guides="1" tooltips="1" connect="1" arrows="1" fold="1" page="1" pageScale="1" pageWidth="1169" pageHeight="827" math="0" shadow="0">
      <root>
        <mxCell id="0" />
        <mxCell id="1" parent="0" />
        <mxCell id="xWkKNKnsdCu0kztOq4cy-1" value="&lt;font face=&quot;Antikor Mono&quot; style=&quot;font-size: 31px;&quot;&gt;a&lt;/font&gt;" style="rounded=0;whiteSpace=wrap;html=1;strokeWidth=2;fillColor=#dae8fc;strokeColor=#6c8ebf;" vertex="1" parent="1">
          <mxGeometry x="120" y="200" width="80" height="80" as="geometry" />
        </mxCell>
        <mxCell id="xWkKNKnsdCu0kztOq4cy-2" value="&lt;font face=&quot;Antikor Mono&quot; style=&quot;font-size: 31px;&quot;&gt;a&lt;/font&gt;" style="rounded=0;whiteSpace=wrap;html=1;strokeWidth=2;fillColor=#dae8fc;strokeColor=#6c8ebf;" vertex="1" parent="1">
          <mxGeometry x="200" y="200" width="80" height="80" as="geometry" />
        </mxCell>
        <mxCell id="xWkKNKnsdCu0kztOq4cy-3" value="" style="rounded=0;whiteSpace=wrap;html=1;strokeWidth=2;" vertex="1" parent="1">
          <mxGeometry x="280" y="200" width="80" height="80" as="geometry" />
        </mxCell>
        <mxCell id="xWkKNKnsdCu0kztOq4cy-4" value="" style="rounded=0;whiteSpace=wrap;html=1;strokeWidth=2;" vertex="1" parent="1">
          <mxGeometry x="360" y="200" width="80" height="80" as="geometry" />
        </mxCell>
        <mxCell id="xWkKNKnsdCu0kztOq4cy-5" value="" style="rounded=0;whiteSpace=wrap;html=1;strokeWidth=2;" vertex="1" parent="1">
          <mxGeometry x="440" y="200" width="80" height="80" as="geometry" />
        </mxCell>
        <mxCell id="xWkKNKnsdCu0kztOq4cy-6" value="" style="rounded=0;whiteSpace=wrap;html=1;strokeWidth=2;" vertex="1" parent="1">
          <mxGeometry x="520" y="200" width="80" height="80" as="geometry" />
        </mxCell>
        <mxCell id="xWkKNKnsdCu0kztOq4cy-7" value="" style="rounded=0;whiteSpace=wrap;html=1;strokeWidth=2;" vertex="1" parent="1">
          <mxGeometry x="600" y="200" width="80" height="80" as="geometry" />
        </mxCell>
        <mxCell id="xWkKNKnsdCu0kztOq4cy-8" value="" style="rounded=0;whiteSpace=wrap;html=1;strokeWidth=2;" vertex="1" parent="1">
          <mxGeometry x="680" y="200" width="80" height="80" as="geometry" />
        </mxCell>
        <mxCell id="xWkKNKnsdCu0kztOq4cy-9" value="" style="shape=crossbar;whiteSpace=wrap;html=1;rounded=1;strokeWidth=2;" vertex="1" parent="1">
          <mxGeometry x="120" y="130" width="640" height="20" as="geometry" />
        </mxCell>
        <mxCell id="xWkKNKnsdCu0kztOq4cy-10" value="&lt;span style=&quot;background-color: rgb(255, 255, 255);&quot;&gt;&lt;font face=&quot;Antikor Mono&quot; style=&quot;&quot;&gt;&lt;font style=&quot;font-size: 16px;&quot;&gt;8-byte&lt;/font&gt;&lt;br&gt;&lt;/font&gt;&lt;/span&gt;" style="text;html=1;align=center;verticalAlign=middle;resizable=0;points=[];autosize=1;" vertex="1" parent="1">
          <mxGeometry x="399" y="115" width="80" height="30" as="geometry" />
        </mxCell>
        <mxCell id="xWkKNKnsdCu0kztOq4cy-11" value="" style="shape=crossbar;whiteSpace=wrap;html=1;rounded=1;strokeWidth=2;" vertex="1" parent="1">
          <mxGeometry x="120" y="170" width="80" height="20" as="geometry" />
        </mxCell>
        <mxCell id="xWkKNKnsdCu0kztOq4cy-12" value="&lt;span style=&quot;background-color: rgb(255, 255, 255);&quot;&gt;&lt;font face=&quot;Antikor Mono&quot; style=&quot;font-size: 16px;&quot;&gt;1-byte&lt;/font&gt;&lt;/span&gt;" style="text;html=1;align=center;verticalAlign=middle;resizable=0;points=[];autosize=1;" vertex="1" parent="1">
          <mxGeometry x="119" y="156" width="80" height="30" as="geometry" />
        </mxCell>
        <mxCell id="xWkKNKnsdCu0kztOq4cy-13" value="&lt;font face=&quot;Antikor Mono&quot; style=&quot;font-size: 31px;&quot;&gt;b&lt;/font&gt;" style="rounded=0;whiteSpace=wrap;html=1;strokeWidth=2;fillColor=#f8cecc;strokeColor=#b85450;" vertex="1" parent="1">
          <mxGeometry x="120" y="300" width="80" height="80" as="geometry" />
        </mxCell>
        <mxCell id="xWkKNKnsdCu0kztOq4cy-14" value="&lt;font face=&quot;Antikor Mono&quot; style=&quot;font-size: 31px;&quot;&gt;b&lt;/font&gt;" style="rounded=0;whiteSpace=wrap;html=1;strokeWidth=2;fillColor=#f8cecc;strokeColor=#b85450;" vertex="1" parent="1">
          <mxGeometry x="200" y="300" width="80" height="80" as="geometry" />
        </mxCell>
        <mxCell id="xWkKNKnsdCu0kztOq4cy-21" value="&lt;font face=&quot;Antikor Mono&quot; style=&quot;font-size: 31px;&quot;&gt;b&lt;/font&gt;" style="rounded=0;whiteSpace=wrap;html=1;strokeWidth=2;fillColor=#f8cecc;strokeColor=#b85450;" vertex="1" parent="1">
          <mxGeometry x="280" y="300" width="80" height="80" as="geometry" />
        </mxCell>
        <mxCell id="xWkKNKnsdCu0kztOq4cy-22" value="&lt;font face=&quot;Antikor Mono&quot; style=&quot;font-size: 31px;&quot;&gt;b&lt;/font&gt;" style="rounded=0;whiteSpace=wrap;html=1;strokeWidth=2;fillColor=#f8cecc;strokeColor=#b85450;" vertex="1" parent="1">
          <mxGeometry x="359" y="200" width="80" height="80" as="geometry" />
        </mxCell>
        <mxCell id="xWkKNKnsdCu0kztOq4cy-23" value="&lt;font face=&quot;Antikor Mono&quot; style=&quot;font-size: 31px;&quot;&gt;b&lt;/font&gt;" style="rounded=0;whiteSpace=wrap;html=1;strokeWidth=2;fillColor=#f8cecc;strokeColor=#b85450;" vertex="1" parent="1">
          <mxGeometry x="439" y="200" width="80" height="80" as="geometry" />
        </mxCell>
        <mxCell id="xWkKNKnsdCu0kztOq4cy-24" value="&lt;font face=&quot;Antikor Mono&quot; style=&quot;font-size: 31px;&quot;&gt;b&lt;/font&gt;" style="rounded=0;whiteSpace=wrap;html=1;strokeWidth=2;fillColor=#f8cecc;strokeColor=#b85450;" vertex="1" parent="1">
          <mxGeometry x="519" y="200" width="80" height="80" as="geometry" />
        </mxCell>
        <mxCell id="xWkKNKnsdCu0kztOq4cy-25" value="&lt;font face=&quot;Antikor Mono&quot; style=&quot;font-size: 31px;&quot;&gt;b&lt;/font&gt;" style="rounded=0;whiteSpace=wrap;html=1;strokeWidth=2;fillColor=#f8cecc;strokeColor=#b85450;" vertex="1" parent="1">
          <mxGeometry x="599" y="200" width="80" height="80" as="geometry" />
        </mxCell>
        <mxCell id="xWkKNKnsdCu0kztOq4cy-26" value="&lt;font face=&quot;Antikor Mono&quot; style=&quot;font-size: 31px;&quot;&gt;b&lt;/font&gt;" style="rounded=0;whiteSpace=wrap;html=1;strokeWidth=2;fillColor=#f8cecc;strokeColor=#b85450;" vertex="1" parent="1">
          <mxGeometry x="679" y="200" width="80" height="80" as="geometry" />
        </mxCell>
        <mxCell id="xWkKNKnsdCu0kztOq4cy-27" value="" style="rounded=0;whiteSpace=wrap;html=1;strokeWidth=2;" vertex="1" parent="1">
          <mxGeometry x="119" y="400" width="80" height="80" as="geometry" />
        </mxCell>
        <mxCell id="xWkKNKnsdCu0kztOq4cy-28" value="" style="rounded=0;whiteSpace=wrap;html=1;strokeWidth=2;" vertex="1" parent="1">
          <mxGeometry x="199" y="400" width="80" height="80" as="geometry" />
        </mxCell>
        <mxCell id="xWkKNKnsdCu0kztOq4cy-29" value="" style="rounded=0;whiteSpace=wrap;html=1;strokeWidth=2;" vertex="1" parent="1">
          <mxGeometry x="279" y="400" width="80" height="80" as="geometry" />
        </mxCell>
        <mxCell id="xWkKNKnsdCu0kztOq4cy-30" value="" style="rounded=0;whiteSpace=wrap;html=1;strokeWidth=2;" vertex="1" parent="1">
          <mxGeometry x="359" y="400" width="80" height="80" as="geometry" />
        </mxCell>
        <mxCell id="xWkKNKnsdCu0kztOq4cy-31" value="" style="rounded=0;whiteSpace=wrap;html=1;strokeWidth=2;" vertex="1" parent="1">
          <mxGeometry x="439" y="400" width="80" height="80" as="geometry" />
        </mxCell>
        <mxCell id="xWkKNKnsdCu0kztOq4cy-32" value="" style="rounded=0;whiteSpace=wrap;html=1;strokeWidth=2;" vertex="1" parent="1">
          <mxGeometry x="519" y="400" width="80" height="80" as="geometry" />
        </mxCell>
        <mxCell id="xWkKNKnsdCu0kztOq4cy-33" value="" style="rounded=0;whiteSpace=wrap;html=1;strokeWidth=2;" vertex="1" parent="1">
          <mxGeometry x="599" y="400" width="80" height="80" as="geometry" />
        </mxCell>
        <mxCell id="xWkKNKnsdCu0kztOq4cy-34" value="" style="rounded=0;whiteSpace=wrap;html=1;strokeWidth=2;" vertex="1" parent="1">
          <mxGeometry x="679" y="400" width="80" height="80" as="geometry" />
        </mxCell>
        <mxCell id="xWkKNKnsdCu0kztOq4cy-35" value="&lt;font face=&quot;Antikor Mono&quot; style=&quot;font-size: 31px;&quot;&gt;c&lt;/font&gt;" style="rounded=0;whiteSpace=wrap;html=1;strokeWidth=2;fillColor=#e1d5e7;strokeColor=#9673a6;" vertex="1" parent="1">
          <mxGeometry x="280" y="200" width="80" height="80" as="geometry" />
        </mxCell>
        <mxCell id="xWkKNKnsdCu0kztOq4cy-36" value="" style="rounded=0;whiteSpace=wrap;html=1;strokeWidth=2;" vertex="1" parent="1">
          <mxGeometry x="360" y="300" width="80" height="80" as="geometry" />
        </mxCell>
        <mxCell id="xWkKNKnsdCu0kztOq4cy-37" value="" style="rounded=0;whiteSpace=wrap;html=1;strokeWidth=2;" vertex="1" parent="1">
          <mxGeometry x="440" y="300" width="80" height="80" as="geometry" />
        </mxCell>
        <mxCell id="xWkKNKnsdCu0kztOq4cy-38" value="" style="rounded=0;whiteSpace=wrap;html=1;strokeWidth=2;" vertex="1" parent="1">
          <mxGeometry x="520" y="300" width="80" height="80" as="geometry" />
        </mxCell>
        <mxCell id="xWkKNKnsdCu0kztOq4cy-39" value="" style="rounded=0;whiteSpace=wrap;html=1;strokeWidth=2;" vertex="1" parent="1">
          <mxGeometry x="600" y="300" width="80" height="80" as="geometry" />
        </mxCell>
        <mxCell id="xWkKNKnsdCu0kztOq4cy-40" value="" style="rounded=0;whiteSpace=wrap;html=1;strokeWidth=2;" vertex="1" parent="1">
          <mxGeometry x="680" y="300" width="80" height="80" as="geometry" />
        </mxCell>
      </root>
    </mxGraphModel>
  </diagram>
  <diagram id="BO5Aa5sgyVJbmE9A03vG" name="Page-2">
    <mxGraphModel dx="1042" dy="582" grid="1" gridSize="10" guides="1" tooltips="1" connect="1" arrows="1" fold="1" page="1" pageScale="1" pageWidth="1169" pageHeight="827" math="0" shadow="0">
      <root>
        <mxCell id="0" />
        <mxCell id="1" parent="0" />
        <mxCell id="DxgdJpDAh6R0aJKdbAlx-30" value="" style="rounded=0;whiteSpace=wrap;html=1;strokeWidth=2;" vertex="1" parent="1">
          <mxGeometry x="360" y="300" width="80" height="80" as="geometry" />
        </mxCell>
        <mxCell id="DxgdJpDAh6R0aJKdbAlx-31" value="" style="rounded=0;whiteSpace=wrap;html=1;strokeWidth=2;" vertex="1" parent="1">
          <mxGeometry x="440" y="300" width="80" height="80" as="geometry" />
        </mxCell>
        <mxCell id="DxgdJpDAh6R0aJKdbAlx-32" value="" style="rounded=0;whiteSpace=wrap;html=1;strokeWidth=2;" vertex="1" parent="1">
          <mxGeometry x="520" y="300" width="80" height="80" as="geometry" />
        </mxCell>
        <mxCell id="DxgdJpDAh6R0aJKdbAlx-33" value="" style="rounded=0;whiteSpace=wrap;html=1;strokeWidth=2;" vertex="1" parent="1">
          <mxGeometry x="600" y="300" width="80" height="80" as="geometry" />
        </mxCell>
        <mxCell id="DxgdJpDAh6R0aJKdbAlx-34" value="" style="rounded=0;whiteSpace=wrap;html=1;strokeWidth=2;" vertex="1" parent="1">
          <mxGeometry x="680" y="300" width="80" height="80" as="geometry" />
        </mxCell>
        <mxCell id="DxgdJpDAh6R0aJKdbAlx-1" value="&lt;font face=&quot;Antikor Mono&quot; style=&quot;font-size: 31px;&quot;&gt;a&lt;/font&gt;" style="rounded=0;whiteSpace=wrap;html=1;strokeWidth=2;fillColor=#dae8fc;strokeColor=#6c8ebf;" vertex="1" parent="1">
          <mxGeometry x="120" y="200" width="80" height="80" as="geometry" />
        </mxCell>
        <mxCell id="DxgdJpDAh6R0aJKdbAlx-2" value="&lt;font face=&quot;Antikor Mono&quot; style=&quot;font-size: 31px;&quot;&gt;a&lt;/font&gt;" style="rounded=0;whiteSpace=wrap;html=1;strokeWidth=2;fillColor=#dae8fc;strokeColor=#6c8ebf;" vertex="1" parent="1">
          <mxGeometry x="200" y="200" width="80" height="80" as="geometry" />
        </mxCell>
        <mxCell id="DxgdJpDAh6R0aJKdbAlx-3" value="" style="rounded=0;whiteSpace=wrap;html=1;strokeWidth=2;" vertex="1" parent="1">
          <mxGeometry x="280" y="200" width="80" height="80" as="geometry" />
        </mxCell>
        <mxCell id="DxgdJpDAh6R0aJKdbAlx-4" value="" style="rounded=0;whiteSpace=wrap;html=1;strokeWidth=2;" vertex="1" parent="1">
          <mxGeometry x="360" y="200" width="80" height="80" as="geometry" />
        </mxCell>
        <mxCell id="DxgdJpDAh6R0aJKdbAlx-5" value="" style="rounded=0;whiteSpace=wrap;html=1;strokeWidth=2;" vertex="1" parent="1">
          <mxGeometry x="440" y="200" width="80" height="80" as="geometry" />
        </mxCell>
        <mxCell id="DxgdJpDAh6R0aJKdbAlx-6" value="" style="rounded=0;whiteSpace=wrap;html=1;strokeWidth=2;" vertex="1" parent="1">
          <mxGeometry x="520" y="200" width="80" height="80" as="geometry" />
        </mxCell>
        <mxCell id="DxgdJpDAh6R0aJKdbAlx-7" value="" style="rounded=0;whiteSpace=wrap;html=1;strokeWidth=2;" vertex="1" parent="1">
          <mxGeometry x="600" y="200" width="80" height="80" as="geometry" />
        </mxCell>
        <mxCell id="DxgdJpDAh6R0aJKdbAlx-8" value="" style="rounded=0;whiteSpace=wrap;html=1;strokeWidth=2;" vertex="1" parent="1">
          <mxGeometry x="680" y="200" width="80" height="80" as="geometry" />
        </mxCell>
        <mxCell id="DxgdJpDAh6R0aJKdbAlx-9" value="" style="shape=crossbar;whiteSpace=wrap;html=1;rounded=1;strokeWidth=2;" vertex="1" parent="1">
          <mxGeometry x="120" y="130" width="640" height="20" as="geometry" />
        </mxCell>
        <mxCell id="DxgdJpDAh6R0aJKdbAlx-10" value="&lt;span style=&quot;background-color: rgb(255, 255, 255);&quot;&gt;&lt;font face=&quot;Antikor Mono&quot; style=&quot;&quot;&gt;&lt;font style=&quot;font-size: 16px;&quot;&gt;8-byte&lt;/font&gt;&lt;br&gt;&lt;/font&gt;&lt;/span&gt;" style="text;html=1;align=center;verticalAlign=middle;resizable=0;points=[];autosize=1;" vertex="1" parent="1">
          <mxGeometry x="399" y="115" width="80" height="30" as="geometry" />
        </mxCell>
        <mxCell id="DxgdJpDAh6R0aJKdbAlx-11" value="" style="shape=crossbar;whiteSpace=wrap;html=1;rounded=1;strokeWidth=2;" vertex="1" parent="1">
          <mxGeometry x="120" y="170" width="80" height="20" as="geometry" />
        </mxCell>
        <mxCell id="DxgdJpDAh6R0aJKdbAlx-12" value="&lt;span style=&quot;background-color: rgb(255, 255, 255);&quot;&gt;&lt;font face=&quot;Antikor Mono&quot; style=&quot;font-size: 16px;&quot;&gt;1-byte&lt;/font&gt;&lt;/span&gt;" style="text;html=1;align=center;verticalAlign=middle;resizable=0;points=[];autosize=1;" vertex="1" parent="1">
          <mxGeometry x="119" y="156" width="80" height="30" as="geometry" />
        </mxCell>
        <mxCell id="DxgdJpDAh6R0aJKdbAlx-13" value="&lt;font face=&quot;Antikor Mono&quot; style=&quot;font-size: 31px;&quot;&gt;b&lt;/font&gt;" style="rounded=0;whiteSpace=wrap;html=1;strokeWidth=2;fillColor=#f8cecc;strokeColor=#b85450;" vertex="1" parent="1">
          <mxGeometry x="120" y="300" width="80" height="80" as="geometry" />
        </mxCell>
        <mxCell id="DxgdJpDAh6R0aJKdbAlx-14" value="&lt;font face=&quot;Antikor Mono&quot; style=&quot;font-size: 31px;&quot;&gt;b&lt;/font&gt;" style="rounded=0;whiteSpace=wrap;html=1;strokeWidth=2;fillColor=#f8cecc;strokeColor=#b85450;" vertex="1" parent="1">
          <mxGeometry x="200" y="300" width="80" height="80" as="geometry" />
        </mxCell>
        <mxCell id="DxgdJpDAh6R0aJKdbAlx-15" value="&lt;font face=&quot;Antikor Mono&quot; style=&quot;font-size: 31px;&quot;&gt;b&lt;/font&gt;" style="rounded=0;whiteSpace=wrap;html=1;strokeWidth=2;fillColor=#f8cecc;strokeColor=#b85450;" vertex="1" parent="1">
          <mxGeometry x="280" y="300" width="80" height="80" as="geometry" />
        </mxCell>
        <mxCell id="DxgdJpDAh6R0aJKdbAlx-16" value="&lt;font face=&quot;Antikor Mono&quot; style=&quot;font-size: 31px;&quot;&gt;b&lt;/font&gt;" style="rounded=0;whiteSpace=wrap;html=1;strokeWidth=2;fillColor=#f8cecc;strokeColor=#b85450;" vertex="1" parent="1">
          <mxGeometry x="359" y="300" width="80" height="80" as="geometry" />
        </mxCell>
        <mxCell id="DxgdJpDAh6R0aJKdbAlx-17" value="&lt;font face=&quot;Antikor Mono&quot; style=&quot;font-size: 31px;&quot;&gt;b&lt;/font&gt;" style="rounded=0;whiteSpace=wrap;html=1;strokeWidth=2;fillColor=#f8cecc;strokeColor=#b85450;" vertex="1" parent="1">
          <mxGeometry x="439" y="300" width="80" height="80" as="geometry" />
        </mxCell>
        <mxCell id="DxgdJpDAh6R0aJKdbAlx-18" value="&lt;font face=&quot;Antikor Mono&quot; style=&quot;font-size: 31px;&quot;&gt;b&lt;/font&gt;" style="rounded=0;whiteSpace=wrap;html=1;strokeWidth=2;fillColor=#f8cecc;strokeColor=#b85450;" vertex="1" parent="1">
          <mxGeometry x="519" y="300" width="80" height="80" as="geometry" />
        </mxCell>
        <mxCell id="DxgdJpDAh6R0aJKdbAlx-19" value="&lt;font face=&quot;Antikor Mono&quot; style=&quot;font-size: 31px;&quot;&gt;b&lt;/font&gt;" style="rounded=0;whiteSpace=wrap;html=1;strokeWidth=2;fillColor=#f8cecc;strokeColor=#b85450;" vertex="1" parent="1">
          <mxGeometry x="599" y="300" width="80" height="80" as="geometry" />
        </mxCell>
        <mxCell id="DxgdJpDAh6R0aJKdbAlx-20" value="&lt;font face=&quot;Antikor Mono&quot; style=&quot;font-size: 31px;&quot;&gt;b&lt;/font&gt;" style="rounded=0;whiteSpace=wrap;html=1;strokeWidth=2;fillColor=#f8cecc;strokeColor=#b85450;" vertex="1" parent="1">
          <mxGeometry x="679" y="300" width="80" height="80" as="geometry" />
        </mxCell>
        <mxCell id="DxgdJpDAh6R0aJKdbAlx-21" value="" style="rounded=0;whiteSpace=wrap;html=1;strokeWidth=2;" vertex="1" parent="1">
          <mxGeometry x="119" y="400" width="80" height="80" as="geometry" />
        </mxCell>
        <mxCell id="DxgdJpDAh6R0aJKdbAlx-22" value="" style="rounded=0;whiteSpace=wrap;html=1;strokeWidth=2;" vertex="1" parent="1">
          <mxGeometry x="199" y="400" width="80" height="80" as="geometry" />
        </mxCell>
        <mxCell id="DxgdJpDAh6R0aJKdbAlx-23" value="" style="rounded=0;whiteSpace=wrap;html=1;strokeWidth=2;" vertex="1" parent="1">
          <mxGeometry x="279" y="400" width="80" height="80" as="geometry" />
        </mxCell>
        <mxCell id="DxgdJpDAh6R0aJKdbAlx-24" value="" style="rounded=0;whiteSpace=wrap;html=1;strokeWidth=2;" vertex="1" parent="1">
          <mxGeometry x="359" y="400" width="80" height="80" as="geometry" />
        </mxCell>
        <mxCell id="DxgdJpDAh6R0aJKdbAlx-25" value="" style="rounded=0;whiteSpace=wrap;html=1;strokeWidth=2;" vertex="1" parent="1">
          <mxGeometry x="439" y="400" width="80" height="80" as="geometry" />
        </mxCell>
        <mxCell id="DxgdJpDAh6R0aJKdbAlx-26" value="" style="rounded=0;whiteSpace=wrap;html=1;strokeWidth=2;" vertex="1" parent="1">
          <mxGeometry x="519" y="400" width="80" height="80" as="geometry" />
        </mxCell>
        <mxCell id="DxgdJpDAh6R0aJKdbAlx-27" value="" style="rounded=0;whiteSpace=wrap;html=1;strokeWidth=2;" vertex="1" parent="1">
          <mxGeometry x="599" y="400" width="80" height="80" as="geometry" />
        </mxCell>
        <mxCell id="DxgdJpDAh6R0aJKdbAlx-28" value="" style="rounded=0;whiteSpace=wrap;html=1;strokeWidth=2;" vertex="1" parent="1">
          <mxGeometry x="679" y="400" width="80" height="80" as="geometry" />
        </mxCell>
        <mxCell id="DxgdJpDAh6R0aJKdbAlx-29" value="&lt;font face=&quot;Antikor Mono&quot; style=&quot;font-size: 31px;&quot;&gt;c&lt;/font&gt;" style="rounded=0;whiteSpace=wrap;html=1;strokeWidth=2;fillColor=#e1d5e7;strokeColor=#9673a6;" vertex="1" parent="1">
          <mxGeometry x="119" y="400" width="80" height="80" as="geometry" />
        </mxCell>
      </root>
    </mxGraphModel>
  </diagram>
  <diagram id="lFHOo6GUsQImSo9a1iLU" name="Page-3">
    <mxGraphModel dx="1042" dy="582" grid="1" gridSize="10" guides="1" tooltips="1" connect="1" arrows="1" fold="1" page="1" pageScale="1" pageWidth="1169" pageHeight="827" math="0" shadow="0">
      <root>
        <mxCell id="0" />
        <mxCell id="1" parent="0" />
        <mxCell id="ClBeDPPMkkA61hnG8siH-1" value="" style="rounded=0;whiteSpace=wrap;html=1;strokeWidth=2;" vertex="1" parent="1">
          <mxGeometry x="360" y="300" width="80" height="80" as="geometry" />
        </mxCell>
        <mxCell id="ClBeDPPMkkA61hnG8siH-2" value="" style="rounded=0;whiteSpace=wrap;html=1;strokeWidth=2;" vertex="1" parent="1">
          <mxGeometry x="440" y="300" width="80" height="80" as="geometry" />
        </mxCell>
        <mxCell id="ClBeDPPMkkA61hnG8siH-3" value="" style="rounded=0;whiteSpace=wrap;html=1;strokeWidth=2;" vertex="1" parent="1">
          <mxGeometry x="520" y="300" width="80" height="80" as="geometry" />
        </mxCell>
        <mxCell id="ClBeDPPMkkA61hnG8siH-4" value="" style="rounded=0;whiteSpace=wrap;html=1;strokeWidth=2;" vertex="1" parent="1">
          <mxGeometry x="600" y="300" width="80" height="80" as="geometry" />
        </mxCell>
        <mxCell id="ClBeDPPMkkA61hnG8siH-5" value="" style="rounded=0;whiteSpace=wrap;html=1;strokeWidth=2;" vertex="1" parent="1">
          <mxGeometry x="680" y="300" width="80" height="80" as="geometry" />
        </mxCell>
        <mxCell id="ClBeDPPMkkA61hnG8siH-6" value="&lt;font face=&quot;Antikor Mono&quot; style=&quot;font-size: 31px;&quot;&gt;a&lt;/font&gt;" style="rounded=0;whiteSpace=wrap;html=1;strokeWidth=2;fillColor=#dae8fc;strokeColor=#6c8ebf;" vertex="1" parent="1">
          <mxGeometry x="120" y="200" width="80" height="80" as="geometry" />
        </mxCell>
        <mxCell id="ClBeDPPMkkA61hnG8siH-7" value="&lt;font face=&quot;Antikor Mono&quot; style=&quot;font-size: 31px;&quot;&gt;a&lt;/font&gt;" style="rounded=0;whiteSpace=wrap;html=1;strokeWidth=2;fillColor=#dae8fc;strokeColor=#6c8ebf;" vertex="1" parent="1">
          <mxGeometry x="200" y="200" width="80" height="80" as="geometry" />
        </mxCell>
        <mxCell id="ClBeDPPMkkA61hnG8siH-8" value="" style="rounded=0;whiteSpace=wrap;html=1;strokeWidth=2;" vertex="1" parent="1">
          <mxGeometry x="280" y="200" width="80" height="80" as="geometry" />
        </mxCell>
        <mxCell id="ClBeDPPMkkA61hnG8siH-9" value="" style="rounded=0;whiteSpace=wrap;html=1;strokeWidth=2;" vertex="1" parent="1">
          <mxGeometry x="360" y="200" width="80" height="80" as="geometry" />
        </mxCell>
        <mxCell id="ClBeDPPMkkA61hnG8siH-10" value="" style="rounded=0;whiteSpace=wrap;html=1;strokeWidth=2;" vertex="1" parent="1">
          <mxGeometry x="440" y="200" width="80" height="80" as="geometry" />
        </mxCell>
        <mxCell id="ClBeDPPMkkA61hnG8siH-11" value="" style="rounded=0;whiteSpace=wrap;html=1;strokeWidth=2;" vertex="1" parent="1">
          <mxGeometry x="520" y="200" width="80" height="80" as="geometry" />
        </mxCell>
        <mxCell id="ClBeDPPMkkA61hnG8siH-12" value="" style="rounded=0;whiteSpace=wrap;html=1;strokeWidth=2;" vertex="1" parent="1">
          <mxGeometry x="600" y="200" width="80" height="80" as="geometry" />
        </mxCell>
        <mxCell id="ClBeDPPMkkA61hnG8siH-13" value="" style="rounded=0;whiteSpace=wrap;html=1;strokeWidth=2;" vertex="1" parent="1">
          <mxGeometry x="680" y="200" width="80" height="80" as="geometry" />
        </mxCell>
        <mxCell id="ClBeDPPMkkA61hnG8siH-14" value="" style="shape=crossbar;whiteSpace=wrap;html=1;rounded=1;strokeWidth=2;" vertex="1" parent="1">
          <mxGeometry x="120" y="130" width="640" height="20" as="geometry" />
        </mxCell>
        <mxCell id="ClBeDPPMkkA61hnG8siH-15" value="&lt;span style=&quot;background-color: rgb(255, 255, 255);&quot;&gt;&lt;font face=&quot;Antikor Mono&quot; style=&quot;&quot;&gt;&lt;font style=&quot;font-size: 16px;&quot;&gt;8-byte&lt;/font&gt;&lt;br&gt;&lt;/font&gt;&lt;/span&gt;" style="text;html=1;align=center;verticalAlign=middle;resizable=0;points=[];autosize=1;" vertex="1" parent="1">
          <mxGeometry x="399" y="115" width="80" height="30" as="geometry" />
        </mxCell>
        <mxCell id="ClBeDPPMkkA61hnG8siH-16" value="" style="shape=crossbar;whiteSpace=wrap;html=1;rounded=1;strokeWidth=2;" vertex="1" parent="1">
          <mxGeometry x="120" y="170" width="80" height="20" as="geometry" />
        </mxCell>
        <mxCell id="ClBeDPPMkkA61hnG8siH-17" value="&lt;span style=&quot;background-color: rgb(255, 255, 255);&quot;&gt;&lt;font face=&quot;Antikor Mono&quot; style=&quot;font-size: 16px;&quot;&gt;1-byte&lt;/font&gt;&lt;/span&gt;" style="text;html=1;align=center;verticalAlign=middle;resizable=0;points=[];autosize=1;" vertex="1" parent="1">
          <mxGeometry x="119" y="156" width="80" height="30" as="geometry" />
        </mxCell>
        <mxCell id="ClBeDPPMkkA61hnG8siH-18" value="&lt;font face=&quot;Antikor Mono&quot; style=&quot;font-size: 31px;&quot;&gt;b&lt;/font&gt;" style="rounded=0;whiteSpace=wrap;html=1;strokeWidth=2;fillColor=#f8cecc;strokeColor=#b85450;" vertex="1" parent="1">
          <mxGeometry x="120" y="300" width="80" height="80" as="geometry" />
        </mxCell>
        <mxCell id="ClBeDPPMkkA61hnG8siH-19" value="&lt;font face=&quot;Antikor Mono&quot; style=&quot;font-size: 31px;&quot;&gt;b&lt;/font&gt;" style="rounded=0;whiteSpace=wrap;html=1;strokeWidth=2;fillColor=#f8cecc;strokeColor=#b85450;" vertex="1" parent="1">
          <mxGeometry x="200" y="300" width="80" height="80" as="geometry" />
        </mxCell>
        <mxCell id="ClBeDPPMkkA61hnG8siH-20" value="&lt;font face=&quot;Antikor Mono&quot; style=&quot;font-size: 31px;&quot;&gt;b&lt;/font&gt;" style="rounded=0;whiteSpace=wrap;html=1;strokeWidth=2;fillColor=#f8cecc;strokeColor=#b85450;" vertex="1" parent="1">
          <mxGeometry x="280" y="300" width="80" height="80" as="geometry" />
        </mxCell>
        <mxCell id="ClBeDPPMkkA61hnG8siH-21" value="&lt;font face=&quot;Antikor Mono&quot; style=&quot;font-size: 31px;&quot;&gt;b&lt;/font&gt;" style="rounded=0;whiteSpace=wrap;html=1;strokeWidth=2;fillColor=#f8cecc;strokeColor=#b85450;" vertex="1" parent="1">
          <mxGeometry x="359" y="300" width="80" height="80" as="geometry" />
        </mxCell>
        <mxCell id="ClBeDPPMkkA61hnG8siH-22" value="&lt;font face=&quot;Antikor Mono&quot; style=&quot;font-size: 31px;&quot;&gt;b&lt;/font&gt;" style="rounded=0;whiteSpace=wrap;html=1;strokeWidth=2;fillColor=#f8cecc;strokeColor=#b85450;" vertex="1" parent="1">
          <mxGeometry x="439" y="300" width="80" height="80" as="geometry" />
        </mxCell>
        <mxCell id="ClBeDPPMkkA61hnG8siH-23" value="&lt;font face=&quot;Antikor Mono&quot; style=&quot;font-size: 31px;&quot;&gt;b&lt;/font&gt;" style="rounded=0;whiteSpace=wrap;html=1;strokeWidth=2;fillColor=#f8cecc;strokeColor=#b85450;" vertex="1" parent="1">
          <mxGeometry x="519" y="300" width="80" height="80" as="geometry" />
        </mxCell>
        <mxCell id="ClBeDPPMkkA61hnG8siH-24" value="&lt;font face=&quot;Antikor Mono&quot; style=&quot;font-size: 31px;&quot;&gt;b&lt;/font&gt;" style="rounded=0;whiteSpace=wrap;html=1;strokeWidth=2;fillColor=#f8cecc;strokeColor=#b85450;" vertex="1" parent="1">
          <mxGeometry x="599" y="300" width="80" height="80" as="geometry" />
        </mxCell>
        <mxCell id="ClBeDPPMkkA61hnG8siH-25" value="&lt;font face=&quot;Antikor Mono&quot; style=&quot;font-size: 31px;&quot;&gt;b&lt;/font&gt;" style="rounded=0;whiteSpace=wrap;html=1;strokeWidth=2;fillColor=#f8cecc;strokeColor=#b85450;" vertex="1" parent="1">
          <mxGeometry x="679" y="300" width="80" height="80" as="geometry" />
        </mxCell>
        <mxCell id="ClBeDPPMkkA61hnG8siH-26" value="" style="rounded=0;whiteSpace=wrap;html=1;strokeWidth=2;" vertex="1" parent="1">
          <mxGeometry x="119" y="400" width="80" height="80" as="geometry" />
        </mxCell>
        <mxCell id="ClBeDPPMkkA61hnG8siH-27" value="" style="rounded=0;whiteSpace=wrap;html=1;strokeWidth=2;" vertex="1" parent="1">
          <mxGeometry x="199" y="400" width="80" height="80" as="geometry" />
        </mxCell>
        <mxCell id="ClBeDPPMkkA61hnG8siH-28" value="" style="rounded=0;whiteSpace=wrap;html=1;strokeWidth=2;" vertex="1" parent="1">
          <mxGeometry x="279" y="400" width="80" height="80" as="geometry" />
        </mxCell>
        <mxCell id="ClBeDPPMkkA61hnG8siH-29" value="" style="rounded=0;whiteSpace=wrap;html=1;strokeWidth=2;" vertex="1" parent="1">
          <mxGeometry x="359" y="400" width="80" height="80" as="geometry" />
        </mxCell>
        <mxCell id="ClBeDPPMkkA61hnG8siH-30" value="" style="rounded=0;whiteSpace=wrap;html=1;strokeWidth=2;" vertex="1" parent="1">
          <mxGeometry x="439" y="400" width="80" height="80" as="geometry" />
        </mxCell>
        <mxCell id="ClBeDPPMkkA61hnG8siH-31" value="" style="rounded=0;whiteSpace=wrap;html=1;strokeWidth=2;" vertex="1" parent="1">
          <mxGeometry x="519" y="400" width="80" height="80" as="geometry" />
        </mxCell>
        <mxCell id="ClBeDPPMkkA61hnG8siH-32" value="" style="rounded=0;whiteSpace=wrap;html=1;strokeWidth=2;" vertex="1" parent="1">
          <mxGeometry x="599" y="400" width="80" height="80" as="geometry" />
        </mxCell>
        <mxCell id="ClBeDPPMkkA61hnG8siH-33" value="" style="rounded=0;whiteSpace=wrap;html=1;strokeWidth=2;" vertex="1" parent="1">
          <mxGeometry x="679" y="400" width="80" height="80" as="geometry" />
        </mxCell>
        <mxCell id="ClBeDPPMkkA61hnG8siH-34" value="&lt;font face=&quot;Antikor Mono&quot; style=&quot;font-size: 31px;&quot;&gt;c&lt;/font&gt;" style="rounded=0;whiteSpace=wrap;html=1;strokeWidth=2;fillColor=#e1d5e7;strokeColor=#9673a6;" vertex="1" parent="1">
          <mxGeometry x="280" y="200" width="80" height="80" as="geometry" />
        </mxCell>
      </root>
    </mxGraphModel>
  </diagram>
  <diagram id="Dfyaf2vOFjZzxyYl2XQx" name="Page-4">
    <mxGraphModel dx="1042" dy="582" grid="1" gridSize="10" guides="1" tooltips="1" connect="1" arrows="1" fold="1" page="1" pageScale="1" pageWidth="1169" pageHeight="827" math="0" shadow="0">
      <root>
        <mxCell id="0" />
        <mxCell id="1" parent="0" />
        <mxCell id="HBMKZdgNqbOlOgZIjf85-10" value="" style="rounded=0;whiteSpace=wrap;html=1;strokeWidth=2;" vertex="1" parent="1">
          <mxGeometry x="440" y="200" width="80" height="80" as="geometry" />
        </mxCell>
        <mxCell id="HBMKZdgNqbOlOgZIjf85-11" value="" style="rounded=0;whiteSpace=wrap;html=1;strokeWidth=2;" vertex="1" parent="1">
          <mxGeometry x="520" y="200" width="80" height="80" as="geometry" />
        </mxCell>
        <mxCell id="HBMKZdgNqbOlOgZIjf85-12" value="" style="rounded=0;whiteSpace=wrap;html=1;strokeWidth=2;" vertex="1" parent="1">
          <mxGeometry x="600" y="200" width="80" height="80" as="geometry" />
        </mxCell>
        <mxCell id="HBMKZdgNqbOlOgZIjf85-13" value="" style="rounded=0;whiteSpace=wrap;html=1;strokeWidth=2;" vertex="1" parent="1">
          <mxGeometry x="680" y="200" width="80" height="80" as="geometry" />
        </mxCell>
        <mxCell id="HBMKZdgNqbOlOgZIjf85-14" value="" style="shape=crossbar;whiteSpace=wrap;html=1;rounded=1;strokeWidth=2;" vertex="1" parent="1">
          <mxGeometry x="440" y="130" width="320" height="20" as="geometry" />
        </mxCell>
        <mxCell id="HBMKZdgNqbOlOgZIjf85-15" value="&lt;span style=&quot;background-color: rgb(255, 255, 255);&quot;&gt;&lt;font face=&quot;Antikor Mono&quot; style=&quot;&quot;&gt;&lt;font style=&quot;font-size: 16px;&quot;&gt;4-byte&lt;/font&gt;&lt;br&gt;&lt;/font&gt;&lt;/span&gt;" style="text;html=1;align=center;verticalAlign=middle;resizable=0;points=[];autosize=1;" vertex="1" parent="1">
          <mxGeometry x="560" y="115" width="80" height="30" as="geometry" />
        </mxCell>
        <mxCell id="HBMKZdgNqbOlOgZIjf85-16" value="" style="shape=crossbar;whiteSpace=wrap;html=1;rounded=1;strokeWidth=2;" vertex="1" parent="1">
          <mxGeometry x="439" y="170" width="80" height="20" as="geometry" />
        </mxCell>
        <mxCell id="HBMKZdgNqbOlOgZIjf85-17" value="&lt;span style=&quot;background-color: rgb(255, 255, 255);&quot;&gt;&lt;font face=&quot;Antikor Mono&quot; style=&quot;font-size: 16px;&quot;&gt;1-byte&lt;/font&gt;&lt;/span&gt;" style="text;html=1;align=center;verticalAlign=middle;resizable=0;points=[];autosize=1;" vertex="1" parent="1">
          <mxGeometry x="438" y="156" width="80" height="30" as="geometry" />
        </mxCell>
        <mxCell id="HBMKZdgNqbOlOgZIjf85-24" value="&lt;font face=&quot;Antikor Mono&quot; style=&quot;font-size: 31px;&quot;&gt;b&lt;/font&gt;" style="rounded=0;whiteSpace=wrap;html=1;strokeWidth=2;fillColor=#f8cecc;strokeColor=#b85450;" vertex="1" parent="1">
          <mxGeometry x="600" y="280" width="80" height="80" as="geometry" />
        </mxCell>
        <mxCell id="HBMKZdgNqbOlOgZIjf85-25" value="&lt;font face=&quot;Antikor Mono&quot; style=&quot;font-size: 31px;&quot;&gt;b&lt;/font&gt;" style="rounded=0;whiteSpace=wrap;html=1;strokeWidth=2;fillColor=#f8cecc;strokeColor=#b85450;" vertex="1" parent="1">
          <mxGeometry x="680" y="280" width="80" height="80" as="geometry" />
        </mxCell>
        <mxCell id="HBMKZdgNqbOlOgZIjf85-34" value="&lt;font face=&quot;Antikor Mono&quot; style=&quot;font-size: 31px;&quot;&gt;c&lt;/font&gt;" style="rounded=0;whiteSpace=wrap;html=1;strokeWidth=2;fillColor=#e1d5e7;strokeColor=#9673a6;" vertex="1" parent="1">
          <mxGeometry x="680" y="360" width="80" height="80" as="geometry" />
        </mxCell>
        <mxCell id="HBMKZdgNqbOlOgZIjf85-37" value="&lt;font face=&quot;Antikor Mono&quot; style=&quot;font-size: 31px;&quot;&gt;a&lt;/font&gt;" style="rounded=0;whiteSpace=wrap;html=1;strokeWidth=2;fillColor=#dae8fc;strokeColor=#6c8ebf;" vertex="1" parent="1">
          <mxGeometry x="440" y="200" width="80" height="80" as="geometry" />
        </mxCell>
        <mxCell id="HBMKZdgNqbOlOgZIjf85-38" value="&lt;font face=&quot;Antikor Mono&quot; style=&quot;font-size: 31px;&quot;&gt;a&lt;/font&gt;" style="rounded=0;whiteSpace=wrap;html=1;strokeWidth=2;fillColor=#dae8fc;strokeColor=#6c8ebf;" vertex="1" parent="1">
          <mxGeometry x="520" y="200" width="80" height="80" as="geometry" />
        </mxCell>
        <mxCell id="HBMKZdgNqbOlOgZIjf85-39" value="&lt;font face=&quot;Antikor Mono&quot; style=&quot;font-size: 31px;&quot;&gt;a&lt;/font&gt;" style="rounded=0;whiteSpace=wrap;html=1;strokeWidth=2;fillColor=#dae8fc;strokeColor=#6c8ebf;" vertex="1" parent="1">
          <mxGeometry x="600" y="200" width="80" height="80" as="geometry" />
        </mxCell>
        <mxCell id="HBMKZdgNqbOlOgZIjf85-40" value="&lt;font face=&quot;Antikor Mono&quot; style=&quot;font-size: 31px;&quot;&gt;a&lt;/font&gt;" style="rounded=0;whiteSpace=wrap;html=1;strokeWidth=2;fillColor=#dae8fc;strokeColor=#6c8ebf;" vertex="1" parent="1">
          <mxGeometry x="680" y="200" width="80" height="80" as="geometry" />
        </mxCell>
        <mxCell id="HBMKZdgNqbOlOgZIjf85-42" value="" style="rounded=0;whiteSpace=wrap;html=1;strokeWidth=2;" vertex="1" parent="1">
          <mxGeometry x="520" y="280" width="80" height="80" as="geometry" />
        </mxCell>
        <mxCell id="HBMKZdgNqbOlOgZIjf85-43" value="" style="rounded=0;whiteSpace=wrap;html=1;strokeWidth=2;" vertex="1" parent="1">
          <mxGeometry x="440" y="280" width="80" height="80" as="geometry" />
        </mxCell>
        <mxCell id="HBMKZdgNqbOlOgZIjf85-44" value="" style="rounded=0;whiteSpace=wrap;html=1;strokeWidth=2;" vertex="1" parent="1">
          <mxGeometry x="600" y="360" width="80" height="80" as="geometry" />
        </mxCell>
        <mxCell id="HBMKZdgNqbOlOgZIjf85-45" value="" style="rounded=0;whiteSpace=wrap;html=1;strokeWidth=2;" vertex="1" parent="1">
          <mxGeometry x="520" y="360" width="80" height="80" as="geometry" />
        </mxCell>
        <mxCell id="HBMKZdgNqbOlOgZIjf85-46" value="" style="rounded=0;whiteSpace=wrap;html=1;strokeWidth=2;" vertex="1" parent="1">
          <mxGeometry x="440" y="360" width="80" height="80" as="geometry" />
        </mxCell>
      </root>
    </mxGraphModel>
  </diagram>
</mxfile>
